<svg width="126" height="43" viewBox="0 0 126 43" fill="none" xmlns="http://www.w3.org/2000/svg">
<g filter="url(#filter0_i_0_1)">
<rect width="43" height="43" rx="10" fill="#C60909"/>
</g>
<path d="M9.41406 8.07031C10.2474 8.27865 11.0417 8.4349 11.7969 8.53906C12.5521 8.64323 13.2161 8.72135 13.7891 8.77344C14.4661 8.85156 15.0911 8.8776 15.6641 8.85156C16.3932 8.85156 17.3047 8.78646 18.3984 8.65625C19.5182 8.52604 20.6641 8.40885 21.8359 8.30469C23.0078 8.17448 24.1276 8.09635 25.1953 8.07031C26.2891 8.01823 27.1745 8.08333 27.8516 8.26562C28.5286 8.42188 29.2188 8.66927 29.9219 9.00781C30.651 9.32031 31.3151 9.72396 31.9141 10.2188C32.513 10.6875 33.0078 11.2474 33.3984 11.8984C33.7891 12.5234 34.0104 13.2396 34.0625 14.0469C34.0365 15.0625 33.8021 16.013 33.3594 16.8984C32.9948 17.6536 32.3828 18.4349 31.5234 19.2422C30.6641 20.0234 29.4271 20.6224 27.8125 21.0391C28.6198 21.1432 29.3099 21.3255 29.8828 21.5859C30.4818 21.8203 30.9896 22.1068 31.4062 22.4453C31.849 22.7578 32.2005 23.1094 32.4609 23.5C32.7474 23.8906 32.9688 24.2812 33.125 24.6719C33.5156 25.5833 33.6979 26.599 33.6719 27.7188C33.5156 29.1771 33.2161 30.3359 32.7734 31.1953C32.3568 32.0547 31.875 32.7188 31.3281 33.1875C30.7812 33.6562 30.2214 33.9818 29.6484 34.1641C29.0755 34.3464 28.5547 34.4896 28.0859 34.5938C27.6172 34.6979 27.0443 34.75 26.3672 34.75C25.6901 34.75 24.9609 34.737 24.1797 34.7109C23.4245 34.6589 22.6432 34.6198 21.8359 34.5938C21.0286 34.5417 20.2604 34.5417 19.5312 34.5938C18.9323 34.6458 18.2031 34.6979 17.3438 34.75C16.6146 34.8021 15.7031 34.8672 14.6094 34.9453C13.5156 34.9974 12.2396 35.0625 10.7812 35.1406C11.0677 34.9323 11.3021 34.6979 11.4844 34.4375C11.6927 34.151 11.862 33.9036 11.9922 33.6953C12.1224 33.4349 12.2396 33.1875 12.3438 32.9531C12.4219 32.7448 12.487 32.1719 12.5391 31.2344C12.5911 30.2969 12.6302 29.1771 12.6562 27.875C12.6823 26.5469 12.6953 25.1276 12.6953 23.6172C12.7214 22.0807 12.7083 20.6094 12.6562 19.2031C12.6302 17.7708 12.5781 16.5078 12.5 15.4141C12.4479 14.2943 12.3698 13.487 12.2656 12.9922C12.1094 12.4453 11.901 11.8854 11.6406 11.3125C11.4323 10.8177 11.1328 10.2839 10.7422 9.71094C10.3776 9.13802 9.9349 8.59115 9.41406 8.07031ZM17.6562 12.0547C17.6562 12.1589 17.6693 12.5104 17.6953 13.1094C17.7214 13.6302 17.7474 14.4375 17.7734 15.5312C17.8255 16.599 17.8906 18.1224 17.9688 20.1016C18.6198 20.388 19.2578 20.5443 19.8828 20.5703C20.5078 20.5703 21.0677 20.5443 21.5625 20.4922C22.1354 20.4141 22.6823 20.2839 23.2031 20.1016C23.9062 19.8151 24.4531 19.3464 24.8438 18.6953C25.2604 18.0443 25.5339 17.3672 25.6641 16.6641C25.8203 15.9349 25.8594 15.2578 25.7812 14.6328C25.7031 13.9818 25.5339 13.513 25.2734 13.2266C24.7786 12.7839 24.1667 12.4193 23.4375 12.1328C22.8125 11.8984 22.0182 11.7422 21.0547 11.6641C20.1172 11.5599 18.9844 11.6901 17.6562 12.0547ZM17.4609 30.5703C18.4245 31.0651 19.2708 31.3906 20 31.5469C20.7292 31.7031 21.3411 31.7812 21.8359 31.7812C22.4089 31.7812 22.9036 31.7031 23.3203 31.5469C23.8151 31.3125 24.2969 31 24.7656 30.6094C25.2604 30.1927 25.625 29.7109 25.8594 29.1641C26.1198 28.5911 26.224 27.9661 26.1719 27.2891C26.1198 26.5859 25.8203 25.8177 25.2734 24.9844C24.7786 24.3854 24.1797 23.9167 23.4766 23.5781C22.8516 23.2917 22.0573 23.1094 21.0938 23.0312C20.1562 22.9531 18.9974 23.1745 17.6172 23.6953L17.4609 30.5703Z" fill="white"/>
<path d="M46.7803 6.49121C47.7178 6.52051 48.5381 6.53516 49.2412 6.53516C49.9443 6.50586 50.5156 6.49121 50.9551 6.49121H52.2295C52.5518 6.46191 52.9473 6.44727 53.416 6.44727C53.8262 6.44727 54.3242 6.44727 54.9102 6.44727C55.4961 6.44727 56.1699 6.46191 56.9316 6.49121C57.166 7.31152 57.4297 8.11719 57.7227 8.9082C58.0449 9.66992 58.3232 10.3584 58.5576 10.9736C58.8506 11.7061 59.1436 12.3945 59.4365 13.0391C59.7295 13.6836 60.0811 14.46 60.4912 15.3682C60.8428 16.1299 61.2676 17.0674 61.7656 18.1807C62.2637 19.2646 62.8496 20.5098 63.5234 21.916C63.8457 21.0078 64.1387 20.1729 64.4023 19.4111C64.6953 18.6494 64.9443 17.9902 65.1494 17.4336C65.3838 16.7891 65.5742 16.2031 65.7207 15.6758C65.8672 15.1484 66.0283 14.5039 66.2041 13.7422C66.3506 13.0977 66.5117 12.3213 66.6875 11.4131C66.8926 10.5049 67.0977 9.4502 67.3027 8.24902C68.1523 8.24902 68.9141 8.24902 69.5879 8.24902C70.2617 8.24902 70.8477 8.23437 71.3457 8.20508C71.9023 8.20508 72.4004 8.19043 72.8398 8.16113C73.3086 8.16113 73.9385 8.13184 74.7295 8.07324C75.4033 8.01465 76.2969 7.9707 77.4102 7.94141C78.5527 7.88281 79.959 7.80957 81.6289 7.72168C81.0137 8.16113 80.5156 8.60059 80.1348 9.04004C79.7832 9.4502 79.5049 9.81641 79.2998 10.1387C79.0654 10.5195 78.9189 10.8857 78.8604 11.2373C78.8018 11.5303 78.7432 12.2041 78.6846 13.2588C78.6553 14.3135 78.6113 15.5732 78.5527 17.0381C78.5234 18.4736 78.4941 20.0117 78.4648 21.6523C78.4648 23.293 78.4795 24.8457 78.5088 26.3105C78.5381 27.7754 78.582 29.0498 78.6406 30.1338C78.7285 31.1885 78.8457 31.8623 78.9922 32.1553C79.1973 32.5068 79.4756 32.917 79.8271 33.3857C80.1494 33.7959 80.5596 34.2646 81.0576 34.792C81.585 35.3193 82.2734 35.9053 83.123 36.5498C81.7754 36.6084 80.6475 36.6523 79.7393 36.6816C78.8604 36.7109 78.1279 36.7402 77.542 36.7695C76.8682 36.7988 76.3262 36.8135 75.916 36.8135C75.4766 36.8135 74.876 36.8281 74.1143 36.8574C73.4404 36.8867 72.5469 36.9307 71.4336 36.9893C70.3203 37.0186 68.8848 37.0771 67.127 37.165C67.5371 36.6963 67.918 36.2275 68.2695 35.7588C68.6211 35.29 68.9141 34.8652 69.1484 34.4844C69.4414 34.0449 69.6904 33.6201 69.8955 33.21C70.1006 32.6533 70.2617 31.6426 70.3789 30.1777C70.4961 28.918 70.584 27.1162 70.6426 24.7725C70.7012 22.3994 70.7012 19.2207 70.6426 15.2363C70.0859 16.1445 69.5879 17.0527 69.1484 17.9609C68.7383 18.8398 68.3721 19.6455 68.0498 20.3779C67.6982 21.2275 67.376 22.0479 67.083 22.8389C66.79 23.6592 66.4824 24.5674 66.1602 25.5635C65.8672 26.4131 65.5156 27.4238 65.1055 28.5957C64.7246 29.7676 64.2852 31.0566 63.7871 32.4629L62.1172 32.5508C61.8828 31.3789 61.6484 30.3242 61.4141 29.3867C61.1797 28.4199 60.9453 27.5996 60.7109 26.9258C60.4473 26.1348 60.1836 25.4316 59.9199 24.8164C59.627 24.2012 59.3047 23.5127 58.9531 22.751C58.6309 22.1064 58.2354 21.3447 57.7666 20.4658C57.3271 19.5869 56.8145 18.6055 56.2285 17.5215C55.9355 20.5098 55.7598 22.9414 55.7012 24.8164C55.6426 26.6621 55.6426 28.0977 55.7012 29.123C55.7598 30.3535 55.8477 31.2471 55.9648 31.8037C56.1406 32.3018 56.4189 32.8584 56.7998 33.4736C57.1221 34.001 57.5615 34.6309 58.1182 35.3633C58.7041 36.0664 59.4512 36.8574 60.3594 37.7363C59.7148 37.7363 59.041 37.7363 58.3379 37.7363C57.6348 37.7363 56.9902 37.751 56.4043 37.7803C55.7012 37.8096 55.0127 37.8242 54.3389 37.8242C53.6357 37.8535 52.8154 37.8975 51.8779 37.9561C51.0576 38.0146 50.0762 38.0732 48.9336 38.1318C47.791 38.1904 46.4727 38.293 44.9785 38.4395C45.623 38.0293 46.1504 37.6338 46.5605 37.2529C46.9707 36.8428 47.293 36.4766 47.5273 36.1543C47.8203 35.7734 48.04 35.3926 48.1865 35.0117C48.2744 34.7773 48.3477 34.2646 48.4062 33.4736C48.4941 32.6826 48.5674 31.7158 48.626 30.5732C48.7139 29.4307 48.7725 28.1562 48.8018 26.75C48.8604 25.3438 48.9043 23.9229 48.9336 22.4873C48.9922 21.0225 49.0361 19.6016 49.0654 18.2246C49.0947 16.8184 49.1094 15.5586 49.1094 14.4453C49.1387 13.3027 49.1533 12.3506 49.1533 11.5889C49.1533 10.8271 49.1533 10.3437 49.1533 10.1387C49.0654 9.69922 48.9336 9.25977 48.7578 8.82031C48.6113 8.43945 48.377 8.04395 48.0547 7.63379C47.7324 7.22363 47.3076 6.84277 46.7803 6.49121ZM85.9795 20.2021C86.126 20.0264 86.2139 19.7041 86.2432 19.2354C86.3018 18.7373 86.4189 18.1807 86.5947 17.5654C86.7998 16.9502 87.1367 16.3057 87.6055 15.6318C88.0742 14.958 88.8359 14.3281 89.8906 13.7422C90.916 13.1562 91.9121 12.8047 92.8789 12.6875C93.8457 12.5703 94.7686 12.6143 95.6475 12.8193C96.5264 13.0244 97.3467 13.3467 98.1084 13.7861C98.8994 14.2256 99.6172 14.709 100.262 15.2363C100.701 15.5879 101.053 16.1006 101.316 16.7744C101.58 17.4189 101.785 18.1514 101.932 18.9717C102.078 19.792 102.181 20.6562 102.239 21.5645C102.327 22.4434 102.386 23.3076 102.415 24.1572C102.444 24.9775 102.459 25.7393 102.459 26.4424C102.488 27.1162 102.547 27.6729 102.635 28.1123C102.752 28.7568 102.957 29.3135 103.25 29.7822C103.543 30.2217 103.865 30.6025 104.217 30.9248C104.568 31.2178 104.92 31.4521 105.271 31.6279C105.623 31.8037 105.931 31.9355 106.194 32.0234C106.37 32.1113 106.531 32.1699 106.678 32.1992C106.971 32.3164 107.176 32.3164 107.293 32.1992C107.117 32.6094 106.956 32.9609 106.81 33.2539C106.663 33.5469 106.546 33.7959 106.458 34.001C106.341 34.2354 106.238 34.4258 106.15 34.5723C106.062 34.748 105.96 34.9092 105.843 35.0557C105.755 35.2021 105.638 35.3633 105.491 35.5391C105.345 35.7148 105.198 35.9053 105.052 36.1104C104.671 35.9639 104.305 35.7881 103.953 35.583C103.631 35.3779 103.338 35.1875 103.074 35.0117C102.752 34.8066 102.459 34.6016 102.195 34.3965C101.932 34.1914 101.683 33.957 101.448 33.6934C101.243 33.459 101.023 33.21 100.789 32.9463C100.584 32.6826 100.408 32.3896 100.262 32.0674C100.086 32.4482 99.6611 32.9902 98.9873 33.6934C98.3428 34.3965 97.4932 35.041 96.4385 35.627C95.3838 36.1836 94.1533 36.5791 92.7471 36.8135C91.3701 37.0479 89.8467 36.8867 88.1768 36.3301C87.4443 36.0957 86.7559 35.7588 86.1113 35.3193C85.4668 34.8506 84.9102 34.2939 84.4414 33.6494C84.002 33.0049 83.6797 32.2725 83.4746 31.4521C83.2988 30.6025 83.3135 29.665 83.5186 28.6396C83.7236 27.6143 84.0898 26.75 84.6172 26.0469C85.1445 25.3438 85.7744 24.7725 86.5068 24.333C87.2393 23.8936 88.0596 23.5566 88.9678 23.3223C89.876 23.0879 90.8135 22.9268 91.7803 22.8389C92.542 22.8096 93.3037 22.8535 94.0654 22.9707C94.71 23.0879 95.3838 23.3076 96.0869 23.6299C96.79 23.9229 97.3906 24.377 97.8887 24.9922C97.8594 23.4395 97.8008 22.209 97.7129 21.3008C97.6543 20.3633 97.5957 19.6455 97.5371 19.1475C97.4199 18.5615 97.3174 18.1514 97.2295 17.917C97.083 17.7119 96.9219 17.4775 96.7461 17.2139C96.5996 16.9502 96.4092 16.7158 96.1748 16.5107C95.9404 16.2764 95.6475 16.0859 95.2959 15.9395C94.9443 15.793 94.5342 15.7344 94.0654 15.7637C93.5674 15.793 93.1719 15.9248 92.8789 16.1592C92.5859 16.3936 92.3516 16.6719 92.1758 16.9941C92.0293 17.2871 91.9414 17.6094 91.9121 17.9609C91.8828 18.3125 91.8975 18.6201 91.9561 18.8838C92.0146 19.0596 92.1025 19.25 92.2197 19.4551C92.3369 19.6309 92.498 19.8213 92.7031 20.0264C92.9082 20.2314 93.1865 20.4072 93.5381 20.5537C92.8643 20.6416 92.2637 20.7148 91.7363 20.7734C91.209 20.8027 90.7549 20.8467 90.374 20.9053C89.9346 20.9639 89.5537 21.0078 89.2314 21.0371C88.9092 21.0664 88.5283 21.125 88.0889 21.2129C87.708 21.2715 87.2393 21.3447 86.6826 21.4326C86.126 21.5205 85.4814 21.6377 84.749 21.7842C84.9248 21.5791 85.0859 21.3887 85.2324 21.2129C85.3789 21.0078 85.5107 20.832 85.6279 20.6855C85.7451 20.5098 85.8623 20.3486 85.9795 20.2021ZM92.5713 25.4316C92.0439 25.4609 91.5166 25.5928 90.9893 25.8271C90.4619 26.0322 89.9932 26.3398 89.583 26.75C89.1729 27.1309 88.8213 27.585 88.5283 28.1123C88.2646 28.6104 88.1328 29.167 88.1328 29.7822C88.1328 30.3975 88.2793 30.9395 88.5723 31.4082C88.8945 31.8477 89.3047 32.2139 89.8027 32.5068C90.3301 32.7998 90.8867 32.9756 91.4727 33.0342C92.0879 33.0928 92.6885 33.0342 93.2744 32.8584C93.8311 32.6533 94.3584 32.3311 94.8564 31.8916C95.3545 31.4229 95.7793 30.9248 96.1309 30.3975C96.4824 29.8408 96.7314 29.2988 96.8779 28.7715C97.0244 28.2148 97.0391 27.7607 96.9219 27.4092C96.6875 26.6475 96.1602 26.1201 95.3398 25.8271C94.5195 25.5049 93.5967 25.373 92.5713 25.4316ZM106.854 18.3564L114.939 18.4443C114.471 20.2314 114.119 21.7549 113.885 23.0146C113.68 24.2744 113.548 25.3291 113.489 26.1787C113.372 27.1455 113.343 27.9658 113.401 28.6396C113.489 29.2549 113.636 29.9141 113.841 30.6172C114.017 31.2031 114.28 31.877 114.632 32.6387C114.983 33.4004 115.452 34.1621 116.038 34.9238C115.687 34.8066 115.306 34.7188 114.896 34.6602C114.485 34.6016 114.104 34.5576 113.753 34.5283C113.343 34.499 112.933 34.499 112.522 34.5283C112.112 34.5576 111.658 34.6016 111.16 34.6602C110.75 34.7188 110.252 34.792 109.666 34.8799C109.08 34.9678 108.465 35.085 107.82 35.2314C108.26 33.9131 108.597 32.7705 108.831 31.8037C109.095 30.8369 109.285 30.0312 109.402 29.3867C109.52 28.625 109.593 28.0098 109.622 27.541C109.622 26.9551 109.622 26.2959 109.622 25.5635C109.622 24.8018 109.622 24.0693 109.622 23.3662C109.622 22.6631 109.607 22.0479 109.578 21.5205C109.549 20.9639 109.49 20.6123 109.402 20.4658L108.963 20.0264C108.787 19.8799 108.523 19.6748 108.172 19.4111C107.85 19.1182 107.41 18.7666 106.854 18.3564ZM109.974 11.5889C110.589 11.2666 111.204 11.1787 111.819 11.3252C112.464 11.4717 112.962 11.75 113.313 12.1602C113.665 12.5703 113.782 13.0537 113.665 13.6104C113.577 14.167 113.108 14.709 112.259 15.2363C111.409 15.7344 110.662 15.9102 110.018 15.7637C109.373 15.6172 108.919 15.3096 108.655 14.8408C108.392 14.3721 108.348 13.8301 108.523 13.2148C108.699 12.5703 109.183 12.0283 109.974 11.5889ZM118.631 39.2305C118.924 38.791 119.158 38.3809 119.334 38C119.51 37.6191 119.656 37.2969 119.773 37.0332C119.891 36.7109 119.979 36.418 120.037 36.1543C120.066 35.9785 120.081 35.4658 120.081 34.6162C120.081 33.7666 120.052 32.6973 119.993 31.4082C119.964 30.1191 119.92 28.6689 119.861 27.0576C119.832 25.4463 119.773 23.8057 119.686 22.1357C119.627 20.4658 119.554 18.8398 119.466 17.2578C119.407 15.6758 119.349 14.2549 119.29 12.9951C119.231 11.7061 119.173 10.6514 119.114 9.83105C119.056 9.01074 119.012 8.54199 118.982 8.4248C118.924 8.24902 118.821 8.07324 118.675 7.89746C118.382 7.5459 117.884 7.20898 117.181 6.88672C118.675 6.50586 119.817 6.19824 120.608 5.96387C121.077 5.84668 121.487 5.72949 121.839 5.6123C122.161 5.49512 122.483 5.37793 122.806 5.26074C123.069 5.14355 123.362 5.01172 123.685 4.86523C124.007 4.68945 124.3 4.49902 124.563 4.29395C124.417 5.14355 124.3 5.96387 124.212 6.75488C124.124 7.5459 124.051 8.27832 123.992 8.95215C123.934 9.71387 123.904 10.4463 123.904 11.1494C123.758 12.585 123.67 14.1523 123.641 15.8516C123.641 17.5215 123.655 19.2207 123.685 20.9492C123.714 22.6777 123.772 24.3623 123.86 26.0029C123.948 27.6436 124.036 29.1377 124.124 30.4854C124.241 31.8037 124.344 32.9316 124.432 33.8691C124.549 34.7773 124.637 35.3633 124.695 35.627C124.812 36.0664 124.93 36.4912 125.047 36.9014C125.164 37.2529 125.296 37.6191 125.442 38C125.589 38.4102 125.765 38.7324 125.97 38.9668H121.707C121.326 38.9668 120.96 38.9814 120.608 39.0107C120.286 39.04 119.949 39.0693 119.598 39.0986C119.246 39.1279 118.924 39.1719 118.631 39.2305Z" fill="#C60909"/>
<path d="M2.82178 8.5883C3.37478 6.78042 4.33119 5.17857 5.77018 3.9358C6.68045 3.14966 7.88918 3.08494 8.99591 2.80826" stroke="#EA3C3C" stroke-linecap="round"/>
<defs>
<filter id="filter0_i_0_1" x="-2" y="-2" width="45" height="45" filterUnits="userSpaceOnUse" color-interpolation-filters="sRGB">
<feFlood flood-opacity="0" result="BackgroundImageFix"/>
<feBlend mode="normal" in="SourceGraphic" in2="BackgroundImageFix" result="shape"/>
<feColorMatrix in="SourceAlpha" type="matrix" values="0 0 0 0 0 0 0 0 0 0 0 0 0 0 0 0 0 0 127 0" result="hardAlpha"/>
<feOffset dx="-2" dy="-2"/>
<feGaussianBlur stdDeviation="1.5"/>
<feComposite in2="hardAlpha" operator="arithmetic" k2="-1" k3="1"/>
<feColorMatrix type="matrix" values="0 0 0 0 0 0 0 0 0 0 0 0 0 0 0 0 0 0 0.25 0"/>
<feBlend mode="normal" in2="shape" result="effect1_innerShadow_0_1"/>
</filter>
</defs>
</svg>
