<svg width="84" height="43" viewBox="0 0 84 43" fill="none" xmlns="http://www.w3.org/2000/svg">
<g filter="url(#filter0_i_0_1)">
<rect width="43" height="43" rx="10" fill="#C60909"/>
</g>
<path d="M9.41406 8.07031C10.2474 8.27865 11.0417 8.4349 11.7969 8.53906C12.5521 8.64323 13.2161 8.72135 13.7891 8.77344C14.4661 8.85156 15.0911 8.8776 15.6641 8.85156C16.3932 8.85156 17.3047 8.78646 18.3984 8.65625C19.5182 8.52604 20.6641 8.40885 21.8359 8.30469C23.0078 8.17448 24.1276 8.09635 25.1953 8.07031C26.2891 8.01823 27.1745 8.08333 27.8516 8.26562C28.5286 8.42188 29.2188 8.66927 29.9219 9.00781C30.651 9.32031 31.3151 9.72396 31.9141 10.2188C32.513 10.6875 33.0078 11.2474 33.3984 11.8984C33.7891 12.5234 34.0104 13.2396 34.0625 14.0469C34.0365 15.0625 33.8021 16.013 33.3594 16.8984C32.9948 17.6536 32.3828 18.4349 31.5234 19.2422C30.6641 20.0234 29.4271 20.6224 27.8125 21.0391C28.6198 21.1432 29.3099 21.3255 29.8828 21.5859C30.4818 21.8203 30.9896 22.1068 31.4062 22.4453C31.849 22.7578 32.2005 23.1094 32.4609 23.5C32.7474 23.8906 32.9688 24.2812 33.125 24.6719C33.5156 25.5833 33.6979 26.599 33.6719 27.7188C33.5156 29.1771 33.2161 30.3359 32.7734 31.1953C32.3568 32.0547 31.875 32.7188 31.3281 33.1875C30.7812 33.6562 30.2214 33.9818 29.6484 34.1641C29.0755 34.3464 28.5547 34.4896 28.0859 34.5938C27.6172 34.6979 27.0443 34.75 26.3672 34.75C25.6901 34.75 24.9609 34.737 24.1797 34.7109C23.4245 34.6589 22.6432 34.6198 21.8359 34.5938C21.0286 34.5417 20.2604 34.5417 19.5312 34.5938C18.9323 34.6458 18.2031 34.6979 17.3438 34.75C16.6146 34.8021 15.7031 34.8672 14.6094 34.9453C13.5156 34.9974 12.2396 35.0625 10.7812 35.1406C11.0677 34.9323 11.3021 34.6979 11.4844 34.4375C11.6927 34.151 11.862 33.9036 11.9922 33.6953C12.1224 33.4349 12.2396 33.1875 12.3438 32.9531C12.4219 32.7448 12.487 32.1719 12.5391 31.2344C12.5911 30.2969 12.6302 29.1771 12.6562 27.875C12.6823 26.5469 12.6953 25.1276 12.6953 23.6172C12.7214 22.0807 12.7083 20.6094 12.6562 19.2031C12.6302 17.7708 12.5781 16.5078 12.5 15.4141C12.4479 14.2943 12.3698 13.487 12.2656 12.9922C12.1094 12.4453 11.901 11.8854 11.6406 11.3125C11.4323 10.8177 11.1328 10.2839 10.7422 9.71094C10.3776 9.13802 9.9349 8.59115 9.41406 8.07031ZM17.6562 12.0547C17.6562 12.1589 17.6693 12.5104 17.6953 13.1094C17.7214 13.6302 17.7474 14.4375 17.7734 15.5312C17.8255 16.599 17.8906 18.1224 17.9688 20.1016C18.6198 20.388 19.2578 20.5443 19.8828 20.5703C20.5078 20.5703 21.0677 20.5443 21.5625 20.4922C22.1354 20.4141 22.6823 20.2839 23.2031 20.1016C23.9062 19.8151 24.4531 19.3464 24.8438 18.6953C25.2604 18.0443 25.5339 17.3672 25.6641 16.6641C25.8203 15.9349 25.8594 15.2578 25.7812 14.6328C25.7031 13.9818 25.5339 13.513 25.2734 13.2266C24.7786 12.7839 24.1667 12.4193 23.4375 12.1328C22.8125 11.8984 22.0182 11.7422 21.0547 11.6641C20.1172 11.5599 18.9844 11.6901 17.6562 12.0547ZM17.4609 30.5703C18.4245 31.0651 19.2708 31.3906 20 31.5469C20.7292 31.7031 21.3411 31.7812 21.8359 31.7812C22.4089 31.7812 22.9036 31.7031 23.3203 31.5469C23.8151 31.3125 24.2969 31 24.7656 30.6094C25.2604 30.1927 25.625 29.7109 25.8594 29.1641C26.1198 28.5911 26.224 27.9661 26.1719 27.2891C26.1198 26.5859 25.8203 25.8177 25.2734 24.9844C24.7786 24.3854 24.1797 23.9167 23.4766 23.5781C22.8516 23.2917 22.0573 23.1094 21.0938 23.0312C20.1562 22.9531 18.9974 23.1745 17.6172 23.6953L17.4609 30.5703Z" fill="white"/>
<path d="M46.7803 6.49121C47.7178 6.52051 48.5381 6.53516 49.2412 6.53516C49.9443 6.50586 50.5156 6.49121 50.9551 6.49121H52.2295C52.5518 6.46191 52.9473 6.44727 53.416 6.44727C53.8262 6.44727 54.3242 6.44727 54.9102 6.44727C55.4961 6.44727 56.1699 6.46191 56.9316 6.49121C57.166 7.31152 57.4297 8.11719 57.7227 8.9082C58.0449 9.66992 58.3232 10.3584 58.5576 10.9736C58.8506 11.7061 59.1436 12.3945 59.4365 13.0391C59.7295 13.6836 60.0811 14.46 60.4912 15.3682C60.8428 16.1299 61.2676 17.0674 61.7656 18.1807C62.2637 19.2646 62.8496 20.5098 63.5234 21.916C63.8457 21.0078 64.1387 20.1729 64.4023 19.4111C64.6953 18.6494 64.9443 17.9902 65.1494 17.4336C65.3838 16.7891 65.5742 16.2031 65.7207 15.6758C65.8672 15.1484 66.0283 14.5039 66.2041 13.7422C66.3506 13.0977 66.5117 12.3213 66.6875 11.4131C66.8926 10.5049 67.0977 9.4502 67.3027 8.24902C68.1523 8.24902 68.9141 8.24902 69.5879 8.24902C70.2617 8.24902 70.8477 8.23437 71.3457 8.20508C71.9023 8.20508 72.4004 8.19043 72.8398 8.16113C73.3086 8.16113 73.9385 8.13184 74.7295 8.07324C75.4033 8.01465 76.2969 7.9707 77.4102 7.94141C78.5527 7.88281 79.959 7.80957 81.6289 7.72168C81.0137 8.16113 80.5156 8.60059 80.1348 9.04004C79.7832 9.4502 79.5049 9.81641 79.2998 10.1387C79.0654 10.5195 78.9189 10.8857 78.8604 11.2373C78.8018 11.5303 78.7432 12.2041 78.6846 13.2588C78.6553 14.3135 78.6113 15.5732 78.5527 17.0381C78.5234 18.4736 78.4941 20.0117 78.4648 21.6523C78.4648 23.293 78.4795 24.8457 78.5088 26.3105C78.5381 27.7754 78.582 29.0498 78.6406 30.1338C78.7285 31.1885 78.8457 31.8623 78.9922 32.1553C79.1973 32.5068 79.4756 32.917 79.8271 33.3857C80.1494 33.7959 80.5596 34.2646 81.0576 34.792C81.585 35.3193 82.2734 35.9053 83.123 36.5498C81.7754 36.6084 80.6475 36.6523 79.7393 36.6816C78.8604 36.7109 78.1279 36.7402 77.542 36.7695C76.8682 36.7988 76.3262 36.8135 75.916 36.8135C75.4766 36.8135 74.876 36.8281 74.1143 36.8574C73.4404 36.8867 72.5469 36.9307 71.4336 36.9893C70.3203 37.0186 68.8848 37.0771 67.127 37.165C67.5371 36.6963 67.918 36.2275 68.2695 35.7588C68.6211 35.29 68.9141 34.8652 69.1484 34.4844C69.4414 34.0449 69.6904 33.6201 69.8955 33.21C70.1006 32.6533 70.2617 31.6426 70.3789 30.1777C70.4961 28.918 70.584 27.1162 70.6426 24.7725C70.7012 22.3994 70.7012 19.2207 70.6426 15.2363C70.0859 16.1445 69.5879 17.0527 69.1484 17.9609C68.7383 18.8398 68.3721 19.6455 68.0498 20.3779C67.6982 21.2275 67.376 22.0479 67.083 22.8389C66.79 23.6592 66.4824 24.5674 66.1602 25.5635C65.8672 26.4131 65.5156 27.4238 65.1055 28.5957C64.7246 29.7676 64.2852 31.0566 63.7871 32.4629L62.1172 32.5508C61.8828 31.3789 61.6484 30.3242 61.4141 29.3867C61.1797 28.4199 60.9453 27.5996 60.7109 26.9258C60.4473 26.1348 60.1836 25.4316 59.9199 24.8164C59.627 24.2012 59.3047 23.5127 58.9531 22.751C58.6309 22.1064 58.2354 21.3447 57.7666 20.4658C57.3271 19.5869 56.8145 18.6055 56.2285 17.5215C55.9355 20.5098 55.7598 22.9414 55.7012 24.8164C55.6426 26.6621 55.6426 28.0977 55.7012 29.123C55.7598 30.3535 55.8477 31.2471 55.9648 31.8037C56.1406 32.3018 56.4189 32.8584 56.7998 33.4736C57.1221 34.001 57.5615 34.6309 58.1182 35.3633C58.7041 36.0664 59.4512 36.8574 60.3594 37.7363C59.7148 37.7363 59.041 37.7363 58.3379 37.7363C57.6348 37.7363 56.9902 37.751 56.4043 37.7803C55.7012 37.8096 55.0127 37.8242 54.3389 37.8242C53.6357 37.8535 52.8154 37.8975 51.8779 37.9561C51.0576 38.0146 50.0762 38.0732 48.9336 38.1318C47.791 38.1904 46.4727 38.293 44.9785 38.4395C45.623 38.0293 46.1504 37.6338 46.5605 37.2529C46.9707 36.8428 47.293 36.4766 47.5273 36.1543C47.8203 35.7734 48.04 35.3926 48.1865 35.0117C48.2744 34.7773 48.3477 34.2646 48.4062 33.4736C48.4941 32.6826 48.5674 31.7158 48.626 30.5732C48.7139 29.4307 48.7725 28.1562 48.8018 26.75C48.8604 25.3438 48.9043 23.9229 48.9336 22.4873C48.9922 21.0225 49.0361 19.6016 49.0654 18.2246C49.0947 16.8184 49.1094 15.5586 49.1094 14.4453C49.1387 13.3027 49.1533 12.3506 49.1533 11.5889C49.1533 10.8271 49.1533 10.3437 49.1533 10.1387C49.0654 9.69922 48.9336 9.25977 48.7578 8.82031C48.6113 8.43945 48.377 8.04395 48.0547 7.63379C47.7324 7.22363 47.3076 6.84277 46.7803 6.49121Z" fill="#C60909"/>
<path d="M2.82178 8.5883C3.37478 6.78042 4.33119 5.17857 5.77018 3.9358C6.68045 3.14966 7.88918 3.08494 8.99591 2.80826" stroke="#EA3C3C" stroke-linecap="round"/>
<defs>
<filter id="filter0_i_0_1" x="-2" y="-2" width="45" height="45" filterUnits="userSpaceOnUse" color-interpolation-filters="sRGB">
<feFlood flood-opacity="0" result="BackgroundImageFix"/>
<feBlend mode="normal" in="SourceGraphic" in2="BackgroundImageFix" result="shape"/>
<feColorMatrix in="SourceAlpha" type="matrix" values="0 0 0 0 0 0 0 0 0 0 0 0 0 0 0 0 0 0 127 0" result="hardAlpha"/>
<feOffset dx="-2" dy="-2"/>
<feGaussianBlur stdDeviation="1.5"/>
<feComposite in2="hardAlpha" operator="arithmetic" k2="-1" k3="1"/>
<feColorMatrix type="matrix" values="0 0 0 0 0 0 0 0 0 0 0 0 0 0 0 0 0 0 0.25 0"/>
<feBlend mode="normal" in2="shape" result="effect1_innerShadow_0_1"/>
</filter>
</defs>
</svg>
