<svg width="19" height="18" viewBox="0 0 19 18" fill="none" xmlns="http://www.w3.org/2000/svg">
<path d="M10.6424 0.470875C10.3199 -0.156957 9.51711 -0.15696 9.19456 0.470875L6.92298 4.89241C6.76365 5.20255 6.48824 5.4142 6.17433 5.46775L1.91724 6.19397C1.20224 6.31594 0.951431 7.33556 1.50827 7.85662L4.67962 10.8242C4.97318 11.0989 5.11121 11.5322 5.0399 11.9551L4.21032 16.8756C4.07919 17.6535 4.80215 18.2578 5.42247 17.8889L9.43105 15.505C9.73615 15.3236 10.1008 15.3236 10.4059 15.505L14.4145 17.8889C15.0348 18.2578 15.7578 17.6535 15.6266 16.8756L14.7971 11.9551C14.7258 11.5322 14.8638 11.0989 15.1573 10.8242L18.3287 7.85662C18.8855 7.33557 18.6347 6.31594 17.9197 6.19397L13.6626 5.46775C13.3487 5.4142 13.0733 5.20255 12.914 4.89241L10.6424 0.470875Z" fill="#FFE600"/>
<path fill-rule="evenodd" clip-rule="evenodd" d="M7.96921 0.995217C8.65127 -0.181971 10.3487 -0.181968 11.0308 0.995218L13.1196 4.60028C13.3121 4.93257 13.6449 5.15934 14.0242 5.21671L17.4927 5.74137C19.0047 5.97007 19.535 7.88187 18.3575 8.85885L15.8303 10.9557C15.4756 11.2501 15.3088 11.7143 15.395 12.1675L16.1029 15.8907C16.3802 17.3491 14.8514 18.4823 13.5397 17.7906L10.089 15.9709C9.72032 15.7765 9.27968 15.7765 8.91102 15.9709L5.4603 17.7906C4.14859 18.4823 2.61982 17.3491 2.89713 15.8907L3.60505 12.1675C3.69121 11.7143 3.52443 11.2501 3.16971 10.9557L0.642476 8.85885C-0.535008 7.88187 -0.00465917 5.97007 1.50728 5.74137L4.97581 5.21671C5.35513 5.15934 5.68791 4.93257 5.88044 4.60027L7.96921 0.995217ZM9.71868 1.75771C9.62125 1.58954 9.37875 1.58954 9.28132 1.75771L7.19255 5.36277C6.76898 6.09382 6.03686 6.5927 5.20237 6.71893L1.73384 7.24359C1.51785 7.27626 1.44208 7.54937 1.6103 7.68894L4.13753 9.78584C4.91791 10.4333 5.28484 11.4547 5.09527 12.4517L4.38736 16.1749C4.34774 16.3832 4.56614 16.5451 4.75353 16.4463L8.20424 14.6266C9.0153 14.1989 9.9847 14.1989 10.7958 14.6266L14.2465 16.4463C14.4339 16.5451 14.6523 16.3832 14.6126 16.1749L13.9047 12.4517C13.7152 11.4547 14.0821 10.4333 14.8625 9.78584L17.3897 7.68894C17.5579 7.54937 17.4822 7.27626 17.2662 7.24359L13.7976 6.71893C12.9631 6.59271 12.231 6.09382 11.8075 5.36277L9.71868 1.75771Z" fill="#8C8C8C"/>
</svg>
