<svg width="19" height="18" viewBox="0 0 19 18" fill="none" xmlns="http://www.w3.org/2000/svg">
<path fill-rule="evenodd" clip-rule="evenodd" d="M8.04935 1.11419C8.69567 -0.0480754 10.3042 -0.0480722 10.9505 1.11419L12.9298 4.67355C13.1122 5.00164 13.4276 5.22553 13.787 5.28218L17.0737 5.80018C18.5064 6.02598 19.009 7.91356 17.8932 8.87815L15.4984 10.9485C15.1623 11.2391 15.0043 11.6974 15.0859 12.1449L15.7567 15.8208C16.0195 17.2608 14.5709 18.3796 13.3279 17.6966L10.058 15.9001C9.70869 15.7081 9.29114 15.7081 8.9418 15.9001L5.67194 17.6966C4.42896 18.3796 2.98032 17.2608 3.2431 15.8208L3.91391 12.1449C3.99556 11.6974 3.83752 11.2391 3.50139 10.9485L1.10661 8.87815C-0.00916546 7.91355 0.493388 6.02598 1.92609 5.80018L5.21284 5.28218C5.57227 5.22553 5.88761 5.00164 6.07005 4.67355L8.04935 1.11419ZM9.70714 1.86702C9.61481 1.70098 9.38502 1.70098 9.29269 1.86702L7.31339 5.42638C6.91202 6.14817 6.21828 6.64073 5.42752 6.76535L2.14077 7.28336C1.9361 7.31562 1.86431 7.58527 2.0237 7.72307L4.41848 9.79339C5.15797 10.4327 5.50567 11.4411 5.32604 12.4254L4.65522 16.1014C4.61768 16.3071 4.82463 16.467 5.0022 16.3694L8.27207 14.5728C9.04062 14.1505 9.95921 14.1505 10.7278 14.5728L13.9976 16.3694C14.1752 16.467 14.3821 16.3071 14.3446 16.1014L13.6738 12.4254C13.4942 11.4411 13.8419 10.4327 14.5813 9.79339L16.9761 7.72307C17.1355 7.58527 17.0637 7.31562 16.8591 7.28336L13.5723 6.76536C12.7816 6.64073 12.0878 6.14817 11.6864 5.42638L9.70714 1.86702Z" fill="#8C8C8C"/>
</svg>
